<?xml version="1.0" encoding="UTF-8"?>
<svg id="Camada_1" xmlns="http://www.w3.org/2000/svg" version="1.1" xmlns:xlink="http://www.w3.org/1999/xlink" viewBox="0 0 800 800">
  <!-- Generator: Adobe Illustrator 29.3.1, SVG Export Plug-In . SVG Version: 2.1.0 Build 151)  -->
  <defs>
    <style>
      .st0 {
        fill: url(#Gradiente_sem_nome_10);
      }
    </style>
    <linearGradient id="Gradiente_sem_nome_10" data-name="Gradiente sem nome 10" x1="0" y1="400" x2="800" y2="400" gradientUnits="userSpaceOnUse">
      <stop offset="0" stop-color="#a5d3ff"/>
      <stop offset="1" stop-color="#1990ff"/>
    </linearGradient>
  </defs>
  <path class="st0" d="M284.67,357.67c-3.33-10.33-6.33-20.33-9.67-30.67s-6.33-20-9-29.67c-2.67-9.33-5-18-7.33-26h-.67c-3,14.33-6.67,28.67-11.33,43-5,16-10,32.67-15.33,49.33-4.33,17-9.67,32.67-14.67,46.67h84.67c-2-7-4.67-15.33-7.67-24-3-9-6-18.67-9-28.67ZM570.67,348c-18.33-1-35.67,8.67-44.33,25.33-4,7.67-6.33,15.67-7.33,24h70.3c8.67,0,15,0,19-.33,2.67-.33,5.33-1,7.67-2.67v-3.33c0-4.33-.7-8.33-2.03-12.33-5.93-18.67-23.6-31.33-43.27-30.67h0ZM658.33,10H141.67C63.33,10,0,73.33,0,151.67v496.67c0,78.33,63.33,141.67,141.67,141.67h516.67c78.33,0,141.67-63.33,141.67-141.67V151.67c0-78.33-63.33-141.67-141.67-141.67ZM423.67,560.37h-69.67c-2.33.33-4.67-1.37-5.33-3.67l-27.33-80h-124l-25.33,78.67c-.67,3-3.33,5-6.33,4.67h-62.67c-3.67,0-4.67-2-3.67-6l107.33-307.7c1-3.33,2-6.33,3.33-10.33,1.33-7,2-14.33,2-21.67-.33-1.67,1-3.33,2.67-3.67h86.33c2.33,0,4,1,4.33,2.67l121.67,341.67c1,3.67.03,5.37-3.33,5.37h0ZM685.37,427.33c-.7,6.3-1.03,11-1.37,14-.33,2.33-2.3,4.33-4.67,4.33-2,0-5.67.33-11,.7-5.3.67-11.67.97-19.3.97s-15.7-1.33-24.33-1.33h-105.67c1.3,10.33,4.67,20.67,10.33,29.67,6.03,9.03,14.37,16,24.3,20.03,13.33,5.67,28.03,8.67,42.7,8.33,11.67-.37,23.3-1.33,34.63-3.67,10.37-1.3,20.33-3.97,29.7-7.67,1.67-1.3,2.67-.67,2.67,2.67v51.03c0,1.3-.33,2.67-.7,3.97-.7,1-1.33,1.7-2.3,2.33-10.67,4.67-21.67,8-33.33,10-15.7,3-31.33,4.33-47.33,4-25.37,0-46.67-4-64-11.67-16.33-7.03-30.7-18.03-42.03-31.67-10.63-13-18.33-27.67-23-43.67-4.67-15.7-6.97-32.03-6.97-48.7,0-17.97,2.67-35.67,8.33-53,5.33-16.67,13.67-32,25-45.67,11-13.33,24.63-24,40.3-31.67,15.7-7.67,34.33-10.33,55.67-10.33,17.7-.33,35.33,3,51.67,10.33,13.67,6,25.67,15,35,26.67,8.67,11.33,15.67,24,20.03,38,4.3,13.33,6.3,27,6.3,40.67,0,8-.33,15-.63,21.33h0Z"/>
</svg>