<?xml version="1.0" encoding="UTF-8"?>
<svg id="Camada_1" xmlns="http://www.w3.org/2000/svg" version="1.1" xmlns:xlink="http://www.w3.org/1999/xlink" viewBox="0 0 409.6 409.6">
  <!-- Generator: Adobe Illustrator 29.3.1, SVG Export Plug-In . SVG Version: 2.1.0 Build 151)  -->
  <defs>
    <style>
      .st0 {
        fill: url(#Gradiente_sem_nome_101);
      }

      .st1 {
        fill: url(#Gradiente_sem_nome_102);
      }

      .st2 {
        fill: url(#Gradiente_sem_nome_103);
      }

      .st3 {
        fill: url(#Gradiente_sem_nome_10);
      }
    </style>
    <linearGradient id="Gradiente_sem_nome_10" data-name="Gradiente sem nome 10" x1="22.09" y1="129.39" x2="387.5" y2="129.39" gradientUnits="userSpaceOnUse">
      <stop offset="0" stop-color="#a5d3ff"/>
      <stop offset="1" stop-color="#1990ff"/>
    </linearGradient>
    <linearGradient id="Gradiente_sem_nome_101" data-name="Gradiente sem nome 10" x1="131.9" y1="365.24" x2="277.13" y2="365.24" xlink:href="#Gradiente_sem_nome_10"/>
    <linearGradient id="Gradiente_sem_nome_102" data-name="Gradiente sem nome 10" x1="108.76" y1="222.87" x2="299.98" y2="222.87" xlink:href="#Gradiente_sem_nome_10"/>
    <linearGradient id="Gradiente_sem_nome_103" data-name="Gradiente sem nome 10" x1="193.94" y1="247.98" x2="215.14" y2="247.98" xlink:href="#Gradiente_sem_nome_10"/>
  </defs>
  <path class="st3" d="M22.09,29.89c2.85-3.43,4.53-6.28,9.35-7.04,8.38-1.33,35.32-1.1,44.13-.12,12.67,1.4,11.77,10.87,12.08,21.43l86.98-.7c8.03-20.11,33.3-27.55,50.36-13.34,4.68,3.9,7.92,13.34,11.61,14.04h84.83c.2-7.54-.57-18.62,8.5-20.69,7.39-1.68,39.94-1.83,47.71-.62,5.82.91,8.73,4.95,9.38,10.58.77,6.61.77,43.02-1.1,47.42-1.68,3.95-5.52,5.62-9.59,6.09-8.9,1.04-36.84,1.13-45.31-.37-10.08-1.78-9.41-12.67-9.6-21.04h-42.76l24.8,20.1c19.43,20.66,31.88,45.8,37.55,73.63.73,3.6.37,13.27,2.12,15.7.48.67,6.67,2.84,8.94,4.61,20.64,16.2,14.2,52.26-11.74,56.67-40.2,6.83-54.47-44.13-19.54-60.94-1.83-48.98-40.1-96.24-88.93-105.31-10.79,22.74-44.23,21.78-55.32-.28-48.73,10.65-83.85,54.6-88.91,103.46.25,3.85,4.72,3.79,7.08,5.77,25.21,21.05,12.51,59.26-20.65,57.71-30.29-1.42-39.87-39.29-16.24-57.69,2.09-1.63,7.52-3.13,8.14-3.99,1.74-2.42,1.38-12.1,2.12-15.7,3.55-17.44,9.79-34.23,18.99-49.43,11.13-18.39,25.45-31,41.94-44.3h-41.34c-.19,8.37.48,19.26-9.6,21.04-7.78,1.38-38.78,1.49-46.62.25-4.82-.76-6.5-3.61-9.35-7.04V29.89h0Z"/>
  <path class="st0" d="M138.97,387.67c-18.44-11.19,3.54-34.09,16.61-39.7,15.24-6.54,77.6-6.6,93.94-1.72,14.3,4.27,40.09,29.18,20.59,41.42h-131.14Z"/>
  <path class="st1" d="M194.56,118.27v97.64c-9.53,6.86-19.47,12.91-21.25,25.78-6.97,50.36,69.43,50.37,62.47,0-1.78-12.87-11.73-18.92-21.25-25.78v-97.64l3.26,1.8,82.19,124.41-.68,9.18c-15.31,15.2-26.91,34.07-33.87,54.5-1.16,3.41-3.82,19.33-5.98,19.54-5.12-2.73-9.94-3.78-15.65-4.23-20.24-1.59-61.56-2.1-81.32.05-4.41.48-8.84,2.36-12.85,4.18-1.96-.19-5.43-17.98-6.73-21.64-2.9-8.12-7.82-18.87-12.24-26.24-3.4-5.67-20.78-25.31-21.32-27.13-.99-3.31-.76-8.2,1.02-11.22,28.88-37.67,51.92-84.44,80.94-121.39.91-1.16-.06-2.6,3.26-1.8h0Z"/>
  <circle class="st2" cx="204.54" cy="247.98" r="10.6"/>
</svg>