<?xml version="1.0" encoding="UTF-8"?>
<svg id="Camada_1" xmlns="http://www.w3.org/2000/svg" version="1.1" xmlns:xlink="http://www.w3.org/1999/xlink" viewBox="0 0 409.6 409.6">
  <!-- Generator: Adobe Illustrator 29.3.1, SVG Export Plug-In . SVG Version: 2.1.0 Build 151)  -->
  <defs>
    <style>
      .st0 {
        fill: url(#Gradiente_sem_nome_101);
      }

      .st1 {
        fill: url(#Gradiente_sem_nome_10);
      }
    </style>
    <linearGradient id="Gradiente_sem_nome_10" data-name="Gradiente sem nome 10" x1="26.81" y1="213.71" x2="382.01" y2="213.71" gradientUnits="userSpaceOnUse">
      <stop offset="0" stop-color="#a5d3ff"/>
      <stop offset="1" stop-color="#1990ff"/>
    </linearGradient>
    <linearGradient id="Gradiente_sem_nome_101" data-name="Gradiente sem nome 10" x1="154.97" y1="213.87" x2="276.48" y2="213.87" xlink:href="#Gradiente_sem_nome_10"/>
  </defs>
  <path class="st1" d="M214.92,36l25.8,3.69c146.83,30.85,192.78,220.88,72.64,314.42-103.94,80.93-256.41,22.96-282.75-104.24l-3.68-25.81c.28-6.9-.38-13.93,0-20.82C31.86,114.46,105.36,40.94,194.11,36h20.81ZM353.63,213.65c0-82.38-66.76-149.16-149.11-149.16S55.4,131.27,55.4,213.65s66.76,149.16,149.11,149.16,149.11-66.78,149.11-149.16h.01Z"/>
  <path class="st0" d="M180.77,121.55c8.31-.96,15.65,1.49,22.02,6.73,23.26,19.12,44.16,47.36,67.28,67.32,8.65,11,8.56,25.64-.34,36.46-23.11,19.7-44.07,48.53-67.3,67.31-20.68,16.72-44.92,1.47-46.52-23.57-2.71-42.58,1.38-88.91.9-131.7,2.22-11.68,12.12-21.17,23.95-22.54h.01ZM184.4,276.8l63.77-63.4-63.77-62.9v126.3Z"/>
</svg>